<svg xmlns="http://www.w3.org/2000/svg" xmlns:xlink="http://www.w3.org/1999/xlink" viewBox="0 0 298.17 298.17"><defs><style>.cls-1{fill:url(#Degradado_sin_nombre_17);}.cls-2{fill:none;stroke:#000;stroke-linecap:round;stroke-linejoin:round;stroke-width:2px;}.cls-3{fill:#101011;}</style><radialGradient id="Degradado_sin_nombre_17" cx="149.09" cy="149.09" r="149.09" gradientUnits="userSpaceOnUse"><stop offset="0.45" stop-color="#fff"/><stop offset="0.59" stop-color="#fcfcfc"/><stop offset="0.71" stop-color="#f2f2f2"/><stop offset="0.82" stop-color="#e2e0e1"/><stop offset="0.92" stop-color="#cbc8c9"/><stop offset="1" stop-color="#b5b1b2"/></radialGradient></defs><g id="Capa_2" data-name="Capa 2"><g id="Capa_1-2" data-name="Capa 1"><circle class="cls-1" cx="149.09" cy="149.09" r="149.09"/><path class="cls-2" d="M115.17,188c5.65-.33,11.43-.05,16.92-1.16,5.73-1.17,8.35-5.87,8-11.81-.29-5.22-3.23-8.89-9-9.87-5.39-.92-10.93-1-16.94-1.55v45.84"/><path class="cls-2" d="M219.91,163.59v45.89"/><path class="cls-2" d="M193.47,165.09c-.17,3.66-.45,7.31-.47,11-.07,11.14,0,22.28,0,33.42"/><path class="cls-2" d="M66.29,185H39.36"/><path class="cls-2" d="M229.88,209c5.31-14.63,10.62-29.27,16.38-45.12L262.8,209"/><path class="cls-2" d="M143.1,209c5.3-14.64,10.61-29.27,16.35-45.1,5.75,15.65,11.16,30.38,16.56,45.1"/><path class="cls-2" d="M104.69,163.59c-4.65,8.81-9,16.5-13.4,25.44-1,1.94-1,5.65-1,8-.08,4.16,0,8.31,0,12.47"/><path class="cls-2" d="M77.26,164.09l13.4,25.78"/><path class="cls-2" d="M66.79,163.59c.16,4.82.44,9.65.47,14.47.08,10.47,0,20.94,0,31.42"/><path class="cls-2" d="M38.36,163.59v45.89"/><path class="cls-2" d="M150.58,191.52,168,192"/><path class="cls-2" d="M237.36,191.52l17.46.5"/><path class="cls-2" d="M209.43,164.59H177.51"/><path class="cls-3" d="M230,91.28c-1.67.7-2.24,1-2.84,1.18-11.56,3.36-11.53,3.36-11.31,15.22,0,1.9.31,3.19,2.14,4.45,3.45,2.4,4,6,.81,8.83-2.08,1.85-1.42,3.37-.94,5.19,1.93,7.3,3.93,14.58,6,22.15-4.13.17-3.78-4.19-6.41-5.16-1.75,1.34,1,5.14-3.22,5.37-5.91.31-6.4.07-5.31-5.79.82-4.4,1.77-8.78,2.58-13.18.63-3.42,2-6.77-1.69-9.76-1.93-1.57-1.68-5.08.33-6.24,4.51-2.62,3.45-6.56,3.53-10.35,0-2.11,0-4.23,0-6.86-7.3,2.13-14.07,4.24-20.92,6-2.56.67-1.83,2.41-1.84,3.88-.07,7.64-.14,15.28,0,22.91,0,2.58-.78,3.73-3.24,4.62-23.9,8.65-47.7,8.48-71.54-.23-2.39-.88-2.86-2.18-2.82-4.42.1-7.47-.14-15,.12-22.41.11-3.13-1-4.28-3.89-5-12.06-3-24.07-6.12-36.1-9.2-.77-.2-1.66-.17-2.31-1.54,9.31-2.61,18.55-5.19,27.78-7.8Q124,76.11,149.1,69a11.49,11.49,0,0,1,6.77.06C180.25,76.41,204.65,83.68,230,91.28Z"/></g></g></svg>