<svg xmlns="http://www.w3.org/2000/svg" viewBox="0 0 381.51 154.73"><defs><style>.cls-1{fill:#242422;}.cls-2{fill:#212120;}.cls-3{fill:#242423;}.cls-4{fill:#21211f;}.cls-5{fill:#252423;}.cls-6{fill:#252524;}.cls-7{fill:#21201f;}.cls-8{fill:#222220;}.cls-9{fill:#272725;}.cls-10{fill:#262524;}.cls-11{fill:#20201f;}.cls-12{fill:#292928;}.cls-13{fill:#363535;}</style></defs><g id="Capa_2" data-name="Capa 2"><g id="Capa_1-2" data-name="Capa 1"><path class="cls-1" d="M144,31.09c-18.27,0-36.55-.23-54.81.14-5.12.1-4.1-2.72-4.18-5.58s-.5-5.15,4.07-5.12c35.71.22,71.42.11,107.14.12,3.55,0,8.21,6.11,7,9.33-.71,1.93-2.59,1.07-3.93,1.07Q171.63,31.13,144,31.09Z"/><path class="cls-1" d="M143.85,123.71c18,0,35.9,0,53.85.09,1.67,0,4.67-1.72,5,1.84s-3.05,8.35-5.69,8.5c-.5,0-1,0-1.5,0-35.4,0-70.8-.1-106.21.12-4.39,0-4.63-1.72-4.69-5.17-.06-3.68.23-5.6,4.91-5.52C107.61,123.89,125.73,123.71,143.85,123.71Z"/><path class="cls-2" d="M296.33,69.05c.9-8.36,6.47-7.11,11.58-7.09,15.94.08,31.88.22,47.81-.08,4.54-.09,4.22,2.27,4.11,5.19-.1,2.64,1,5.62-3.86,5.38-8.12-.41-16.27-.06-24.4-.16-1.4,0-3.5,1-4-1.61-.05-.3-.32-1.2-.75-.63-3.73,4.83-8.87,2-13.21,2.12-14.1.45-28.22.19-42.33.14-2,0-4.46,1-5.32-2.08-.07-.25-1-.54-1-.48-3.92,6-9.68,1.55-14.49,2.41-4.66.83-9.6,0-14.41.23-2.57.1-3.38-.63-3.41-3.3-.07-7.1-.22-7.1,7.05-7.1,15.77,0,31.55.25,47.31-.14C292.22,61.72,295.28,62.93,296.33,69.05Z"/><path class="cls-3" d="M190.6,11.13H144.33c-18.43,0-36.87-.2-55.3.14-4.89.09-4.41-2.39-4.36-5.49C84.71,3,84.1.52,88.73.57c24.41.26,48.82.05,73.23.17A43.88,43.88,0,0,1,190.6,11.13Z"/><path class="cls-4" d="M190.61,144.27c-8,6.45-15.91,9.9-24.84,10.06-20.08.35-40.16.25-60.25.32-5.81,0-11.62-.1-17.43,0-2.5.07-3.42-.57-3.46-3.27-.13-7.17-.28-7.16,6.92-7.16h99.06Z"/><path class="cls-2" d="M197.32,92.8h-9.7c-25.89,0-51.78-.13-77.66.13-4.78,0-4.71-2.09-4.84-5.62-.15-3.87.91-5,4.9-5,23.73.2,47.47.47,71.18-.11C189.24,82.05,193.32,85.74,197.32,92.8Z"/><path class="cls-2" d="M196.8,62.81c-3.32,5.69-6.78,9.9-14.78,9.72C158,72,133.9,72.2,109.84,72.46c-4.36,0-4.82-1.63-4.68-5.16.13-3.16-.28-5.48,4.48-5.44,27.87.26,55.75.13,83.63.15C194.35,62,195.57,61.6,196.8,62.81Z"/><path class="cls-1" d="M36.59,31.09c-11,0-21.92-.22-32.86.1C-1.41,31.34.31,28,.17,25.57s-1-5.11,3.55-5.06q33.36.36,66.73,0c4.6-.05,3.67,2.63,3.53,5.07s1.61,5.75-3.53,5.61C59.17,30.88,47.88,31.09,36.59,31.09Z"/><path class="cls-1" d="M37.07,134.17c-11.12,0-22.25-.23-33.36.11-4.61.14-3.66-2.63-3.54-5.07s-1.55-5.66,3.57-5.61q33.36.34,66.72,0c5.15-.06,3.36,3.25,3.52,5.62s1,5.19-3.55,5.05C59.32,133.94,48.19,134.17,37.07,134.17Z"/><path class="cls-5" d="M345.9,31.09c-10.63,0-21.26-.05-31.88,0-2.61,0-3.71.06-2.82-3.42,1.42-5.54,3.92-7.39,9.87-7.23,18.58.49,37.19.37,55.79,0,4.73-.08,4.41,2.18,4.44,5.37s.1,5.51-4.51,5.33C366.5,30.81,356.2,31.09,345.9,31.09Z"/><path class="cls-3" d="M246.75,31.09c-10.29,0-20.59-.33-30.86.13-5.48.24-4-3.06-4.32-6-.42-3.63.65-4.75,4.52-4.71,19.41.23,38.83.1,58.24.11,3.65,0,8.43,5.82,7.59,9.31-.47,1.95-2.18,1.08-3.31,1.08C268,31.12,257.37,31.09,246.75,31.09Z"/><path class="cls-4" d="M37.1,10.53c-11.12,0-22.25-.25-33.35.12C-.87,10.8,0,8.08.18,5.63S-1.42,0,3.71.08q33.35.36,66.71,0C75,0,74.12,2.64,74,5.09s1.59,5.69-3.52,5.54C59.35,10.3,48.22,10.53,37.1,10.53Z"/><path class="cls-4" d="M37.13,144.27c11.12,0,22.24.22,33.35-.1,5.14-.15,3.34,3.22,3.49,5.56s1,5.05-3.57,5q-33.36-.37-66.72,0c-5.14.06-3.35-3.22-3.49-5.57s-1-5.15,3.58-5C14.88,144.52,26,144.27,37.13,144.27Z"/><path class="cls-4" d="M317.63,10.53c.95-2.68,1.95-4.95,2.53-7.33S322,.08,324.38.09c17.95.09,35.9.13,53.85,0,4.58,0,3,3.18,2.88,5.18s2,5.32-2.69,5.3C358.32,10.48,338.22,10.53,317.63,10.53Z"/><path class="cls-4" d="M275,10.53c-20.55,0-40.45,0-60.35.05-2.33,0-3.06-.59-3.13-3-.2-7.42-.33-7.42,7.16-7.42C234,.14,249.24.38,264.49,0c5.26-.13,8.54,1,9.27,6.56A24.88,24.88,0,0,0,275,10.53Z"/><path class="cls-6" d="M354.4,134.18c-7.63,0-15.26-.22-22.87.09-3.68.14-4.33-1.54-3.81-4.4.44-2.4-2.06-6.3,3.5-6.23,15.57.17,31.16.12,46.74,0,5.65,0,2.69,4.08,3.21,6.4.56,2.49.19,4.33-3.41,4.2C370,134,362.19,134.18,354.4,134.18Z"/><path class="cls-3" d="M238.15,134.17c-7.63,0-15.26-.1-22.88.06-2.65.05-3.74-.49-3.73-3.46,0-7.07-.17-7.07,7.1-7.07,14.1,0,28.2.2,42.29-.11,4.71-.1,4,2.59,3.95,5.34s1,5.62-3.84,5.35C253.43,133.87,245.78,134.17,238.15,134.17Z"/><path class="cls-7" d="M289.76,51.53c-18.46,0-36.25-.09-54,.07-4.61,0-2.92-3.1-2.91-5.1s-1.74-5.16,2.89-5.11c16,.16,31.92.1,47.88,0,2,0,3,.71,3.53,2.52C287.84,46.27,288.73,48.57,289.76,51.53Z"/><path class="cls-7" d="M303.48,51.53c0-3.14,1.58-5.42,2.18-8a2.54,2.54,0,0,1,2.83-2.14c16.29,0,32.58,0,48.87.06,4.58,0,2,3.65,2.32,5.56.23,1.61,1.59,4.55-2.39,4.53C339.38,51.49,321.47,51.53,303.48,51.53Z"/><path class="cls-2" d="M354.42,154.61c-7.65,0-15.31-.25-22.94.1-4.91.22-3.71-2.93-3.77-5.52s-.8-5.12,3.68-5q23.17.42,46.37,0c4.27-.07,3.68,2.35,3.41,4.71s1.94,6-3.32,5.82C370.05,154.43,362.23,154.61,354.42,154.61Z"/><path class="cls-4" d="M238.65,144.27c7.63,0,15.27.23,22.89-.09,4.85-.21,3.21,3.06,3.27,5.28s1.33,5.31-3.36,5.24c-15.43-.23-30.85-.15-46.28,0-2.79,0-3.64-.71-3.62-3.56,0-6.85-.12-6.85,6.7-6.85Z"/><path class="cls-8" d="M321.68,82.72a2.65,2.65,0,0,1,.09.62c-2.28,9.46-2.28,9.46-11.94,9.46s-19.59-.35-29.35.15c-5.07.26-7.72-1.28-8.58-6.18a33.3,33.3,0,0,0-1.24-4Z"/><path class="cls-9" d="M343.5,92.87c-4.3,0-8.6,0-12.9,0-4.88,0-2.58-3.66-2.81-5.76s-1.29-4.81,2.83-4.73c8.77.19,17.54.15,26.3,0,2.57,0,2.89,1.06,3,3.23.24,7.26.32,7.26-7,7.26Z"/><path class="cls-10" d="M248.87,82.44h9.47c6.66,0,7.92,1.75,6.59,8.5-.37,1.89-1.41,1.93-2.79,1.92-9,0-17.93,0-26.9,0-1.91,0-2.44-.68-2.59-2.59-.63-7.86-.72-7.85,7.26-7.85Z"/><path class="cls-4" d="M314.29,103.61c-2.23,9.73-2.23,9.73-11.54,9.73-5.31,0-10.64-.32-15.92.11-4.25.34-6.46-1.11-7.21-5.22a41.53,41.53,0,0,0-1.46-4.62Z"/><path class="cls-4" d="M185.67,51.54c-3.65,0-7.29.12-10.93-.06-1.67-.08-4.31,1.14-4.86-.9-.7-2.62-.35-5.59-.06-8.38.11-1.09,1.65-.74,2.59-.74,9.44,0,18.88.07,28.31-.06,2.57,0,2.94.83,2.59,3.19-1,6.93-.92,6.95-7.71,6.95Z"/><path class="cls-4" d="M186.26,113.34c-4.63,0-9.27-.1-13.9,0-2.22.07-2.69-.73-2.78-2.83-.32-7.31-.42-7.3,6.71-7.3,7.45,0,14.9,0,22.35,0,6.21,0,3.91,5.17,4.6,8,.9,3.69-2.65,1.85-4.07,1.95C194.88,113.53,190.57,113.34,186.26,113.34Z"/><path class="cls-2" d="M121,51.65c-4.32,0-8.64-.11-13,0s-2.88-3-2.71-4.84-2.09-5.45,2.59-5.42c9.13,0,18.25,0,27.38,0,2,0,2.41.68,2.55,2.57.56,7.69.65,7.68-6.91,7.68Z"/><path class="cls-2" d="M121.37,113.46c-3.82,0-7.68-.37-11.44.09-4.82.58-4.66-2-4.83-5.52-.18-4,1.1-5,5-4.87q12.18.45,24.38,0c5.3-.19,3,3.51,3.3,5.75.32,2.4.77,5-3.45,4.62S125.68,113.46,121.37,113.46Z"/><path class="cls-11" d="M37.08,51.65c-4.3,0-8.61-.13-12.9.05-2.5.1-3.38-.56-3.41-3.25-.05-7-.21-7,7-7s14.55.11,21.82-.06c2.72-.07,3.66.59,3.64,3.49-.06,6.79.11,6.79-6.74,6.79Z"/><path class="cls-6" d="M37.64,61.94h9c6.34,0,8.29,2.75,6.59,8.94-.46,1.68-1.49,1.46-2.59,1.46-9.12,0-18.24,0-27.36,0-1.61,0-2.22-.44-2.45-2.19-1-7.5-.43-8.24,6.9-8.24Z"/><path class="cls-11" d="M37.17,103.25h9.91c5.77,0,7.82,3.12,6.1,8.86-.52,1.73-1.65,1.32-2.68,1.33-8.93,0-17.85,0-26.78,0-2,0-2.82-.4-2.94-2.69-.39-7.56-.52-7.55,7-7.55Z"/><path class="cls-7" d="M249.13,113.37h-9.92c-6.51,0-8-2-6.55-8.47.37-1.66,1.26-1.64,2.43-1.64,9.09,0,18.18,0,27.27,0,1.92,0,2.43.62,2.58,2.53.57,7.62.66,7.62-6.89,7.62Z"/><path class="cls-2" d="M343.91,113.37c-4.48,0-9-.07-13.44,0-4.63.09-2.53-3.39-2.66-5.34s-1.52-4.9,2.69-4.83c9,.14,17.91.09,26.87,0,2,0,2.38.79,2.5,2.63.52,7.53.59,7.53-7,7.53Z"/><path class="cls-6" d="M36.93,92.86H28c-8,0-7.92,0-7.19-8,.18-2,.82-2.49,2.68-2.48,8.95.07,17.91.09,26.86,0,2.1,0,3.09.48,2.87,2.74a26.62,26.62,0,0,0,0,5c.2,2.2-.71,2.85-2.83,2.78C45.88,92.76,41.4,92.85,36.93,92.86Z"/><path class="cls-12" d="M307.2,123.7c-2.89,10.44-6.89,12.78-16.83,10.43-1.31-.31-5.17-8.47-4.61-9.72.46-1,1.39-.69,2.14-.7C294.19,123.68,300.48,123.7,307.2,123.7Z"/><path class="cls-13" d="M296.17,154.38l-3.41-9.93c2.52-.13,6.15-1.09,6.49.4C299.91,147.68,297.92,150.67,296.17,154.38Z"/></g></g></svg>